<svg xmlns="http://www.w3.org/2000/svg" width="64" height="64" fill="none" viewBox="0 0 64 64">
  <g id="antenna 1">
    <g id="Group">
      <g id="Group_2">
        <g id="Group_3">
          <path id="Vector" fill="#2e2f42" d="M61.5463 44.1952 44.6599 27.1851l1.8741-9.231c.4836.1888.9978.2875 1.5168.2912h.0128c2.3846.0282 4.3404-1.882 4.3687-4.2665s-1.882-4.3404-4.2665-4.36867c-2.3846-.02813-4.3404 1.88197-4.3687 4.26657-.006.5102.0784 1.0174.2495 1.4982l-9.92 1.2107L17.9452.32c-.1985-.202533-.4695-.31773333-.7531-.32-.28.00146667-.5481.112933-.7466.3104l-3.0251 3.008c-.4164.41653-.4164 1.09173 0 1.50827l1.6277 1.6512C8.74201 18.0737 10.7903 32.4335 20.0871 41.8037c.0853.0816.1842.1476.2922.1952-.0672.361-.1022.7272-.1045 1.0944v12.3734H7.47481c-2.944.0034-5.32986 2.3893-5.33333 5.3333v2.1333c0 .5891.4776 1.0667 1.06667 1.0667H52.2748c.5891 0 1.0667-.4776 1.0667-1.0667V60.8c-.0035-2.944-2.3893-5.3299-5.3333-5.3333h-12.8v-5.4838c2.0052.4206 4.0482.635 6.097.64 4.9163-.0053 9.7543-1.2309 14.08-3.5669l1.6363 1.6459c.1985.2025.4695.3177.7531.32.28-.0015.5481-.113.7466-.3104l3.0251-3.008c.4164-.4166.4164-1.0918 0-1.5083M46.5596 12.4661c.8354-.8309 2.1862-.8272 3.017.0082.8309.8353.8272 2.1861-.0082 3.0169-.3998.3977-.9409.6209-1.5049.6208h-.0064c-1.1781-.0061-2.1284-.9661-2.1223-2.1444.003-.564.2291-1.1037.629-1.5015zm-2.5109 7.0091-1.1968 5.8912-2.351-2.3648zm-1.2117-1.8037-3.84 3.8176-2.9707-2.9867zM48.0082 57.6c1.7673 0 3.2 1.4327 3.2 3.2v1.0667H4.27481V60.8c0-1.7673 1.43267-3.2 3.2-3.2zm-14.9334-4.2667v2.1334H22.4081v-2.1334zM22.4081 51.2v-8.1067c0-2.5877 2.3926-4.6933 5.3334-4.6933s5.3333 2.1056 5.3333 4.6933V51.2zm12.8001-3.392v-4.7147c0-3.7642-3.3494-6.8266-7.4667-6.8266-2.6622-.0408-5.1515 1.3142-6.5622 3.5722-8.1154-8.5476-9.9429-21.2904-4.5572-31.77423L53.8258 45.4816c-5.7448 2.9224-12.3303 3.7452-18.6176 2.3264m22.5781-1.3675-1.5029-1.5114L17.1815 5.59147l-1.5094-1.51254 1.5094-1.504L33.0513 18.5344c.0075 0 .0118.0139.0193.0192l26.2293 26.3829z"/>
          <path id="Vector_2" fill="#4d5ae5" d="M27.7511 40.5333h-.0096c-1.7673-.0027-3.2021 1.4279-3.2048 3.1952s1.4279 3.2021 3.1952 3.2048h.0096c1.7673.0027 3.2021-1.4279 3.2048-3.1952.0026-1.7673-1.4279-3.2021-3.1952-3.2048m.7467 3.9563c-.2008.1997-.473.3114-.7563.3104-.5891-.0031-1.0641-.4831-1.0611-1.0722.0015-.282.1146-.5518.3144-.7508.1986-.1974.4667-.3089.7467-.3104.5891.0031 1.0641.4831 1.0611 1.0722-.0015.282-.1146.5518-.3144.7508z"/>
        </g>
      </g>
    </g>
  </g>
</svg>

<svg xmlns="http://www.w3.org/2000/svg" width="64" height="64" fill="none" viewBox="0 0 64 64">
  <g id="clock 1">
    <path id="Vector" fill="#2e2f42" d="M62.5933 30.6025C62.5899 13.6978 48.8828-.00341734 31.9775 6.4e-7 15.0728.0034186 1.37158 13.7109 1.375 30.6157c.00293 13.3159 8.61377 25.1021 21.2988 29.1524.1211.0381.2471.0576.3736.0571.2412-.0005.4775-.0649.685-.1875.27-.1597.4717-.4136.5664-.7129l7.73-24.5c2.1133-.0107 3.8174-1.7329 3.8062-3.8457-.0108-2.1133-1.7325-3.8174-3.8457-3.8066-.5684.0024-1.1294.1333-1.6402.3828L20.1372 16.9419c-.5068-.4893-1.314-.4751-1.8032.0312-.4776.4947-.4776 1.2779 0 1.7725l10.2065 10.2183c-.7832 1.5986-.3354 3.5283 1.0728 4.6181L22.248 56.9277C7.69238 51.5659.239258 35.4199 5.60108 20.8643 10.9629 6.30859 27.1089-1.14453 41.6646 4.21729 56.2202 9.5791 63.6733 25.7256 58.3115 40.2808c-2.6196 7.1113-8.0019 12.8623-14.9243 15.9467l-.7959-3.7485c-.1455-.689-.8227-1.1294-1.5117-.9834-.2173.0464-.419.1485-.585.2964l-7.6738 6.8511c-.5264.4682-.5732 1.2744-.1045 1.8008.1524.1709.3477.2978.5664.3676l9.7974 3.127c.6704.2153 1.3887-.1533 1.604-.8242.0683-.2119.0796-.4375.0337-.6553l-.7822-3.6782c11.3286-4.7759 18.684-15.8843 18.6577-28.1783m-30.6089-1.2753c.7041 0 1.2754.5712 1.2754 1.2753 0 .7046-.5713 1.2754-1.2754 1.2754-.7046 0-1.2754-.5708-1.2754-1.2754 0-.7041.5708-1.2753 1.2754-1.2753m4.2007 29.728 4.3681-3.8965 1.2056 5.6807z"/>
    <path id="Vector_2" fill="#4d5ae5" d="M30.709 6.37012V8.9209c0 .70459.5708 1.2754 1.2754 1.2754.7041 0 1.2754-.57081 1.2754-1.2754V6.37012c0-.7041-.5713-1.27539-1.2754-1.27539-.7046 0-1.2754.57129-1.2754 1.27539"/>
    <path id="Vector_3" fill="#4d5ae5" d="M7.75195 29.3271c-.70459 0-1.27539.5713-1.27539 1.2754 0 .7046.5708 1.2754 1.27539 1.2754h2.55075c.7046 0 1.2754-.5708 1.2754-1.2754 0-.7041-.5708-1.2754-1.2754-1.2754z"/>
    <path id="Vector_4" fill="#4d5ae5" d="M56.2162 31.8779c.7046 0 1.2754-.5708 1.2754-1.2754 0-.7041-.5708-1.2754-1.2754-1.2754h-2.5507c-.7041 0-1.2754.5713-1.2754 1.2754 0 .7046.5713 1.2754 1.2754 1.2754z"/>
  </g>
</svg>

<svg xmlns="http://www.w3.org/2000/svg" width="64" height="64" fill="none" viewBox="0 0 64 64">
  <g id="diagram 1" clip-path="url(#clip0_1004689_1305)">
    <path id="Vector" fill="#4d5ae5" d="M29.851 29.9292h2.1323v9.595H29.851z"/>
    <path id="Vector_2" fill="#4d5ae5" d="M38.3799 34.1936h2.1322v5.3306h-2.1322z"/>
    <path id="Vector_3" fill="#4d5ae5" d="M21.3222 37.392h2.1322v2.1322h-2.1322z"/>
    <path id="Vector_4" fill="#4d5ae5" d="M14.9255 36.3258h2.1322v3.1983h-2.1322z"/>
    <path id="Vector_5" fill="#2e2f42" d="M3.19833 56.5819H54.3715c1.7663 0 3.1984-1.432 3.1984-3.1983v-4.2644c0-1.7663-1.4321-3.1983-3.1984-3.1983h-1.0661V19.3343l6.0557-5.7366c1.4055.6928 3.1067.2722 4.0265-.9974.9204-1.2691.7913-3.01666-.305-4.13691s-2.8402-1.28735-4.1296-.39563c-1.2889.89224-1.747 2.58354-1.0849 4.00414l-4.5627 4.3254v-2.4597c0-1.7663-1.432-3.1983-3.1983-3.1983H7.46276c-1.76626 0-3.19833 1.432-3.19833 3.1983v31.9833h-1.0661C1.43206 45.9209 0 47.3529 0 49.1192v4.2644c0 1.7663 1.43206 3.1983 3.19833 3.1983M60.7682 9.67317c.5887 0 1.0661.47733 1.0661 1.06613 0 .5887-.4774 1.0661-1.0661 1.0661-.5888 0-1.0661-.4774-1.0661-1.0661 0-.5888.4773-1.06613 1.0661-1.06613M6.39665 13.9376c0-.5887.47735-1.0661 1.06611-1.0661H50.1071c.5887 0 1.0661.4774 1.0661 1.0661v4.4773L49.041 20.441v-4.3712c0-.5887-.4774-1.0661-1.0661-1.0661H9.59498c-.58876 0-1.06611.4774-1.06611 1.0661v26.6527c0 .5888.47735 1.0661 1.06611 1.0661H47.9749c.5887 0 1.0661-.4773 1.0661-1.0661V23.3738l2.1322-2.0203v24.5674H6.39665zM15.9916 27.797c-1.4424-.0041-2.709.9568-3.0926 2.3472-.3837 1.3904.2103 2.8652 1.4508 3.6013 1.24.736 2.8199.5512 3.8563-.4519l3.7059 1.8595c.4305.2155.9526.1145 1.2727-.2452l7.8777-8.8626 7.7438 5.8027c.4154.3113.9954.278 1.3722-.0786l6.7304-6.3753v16.2623H10.6611V17.1359h36.2477v5.3207l-7.543 7.1431-7.8089-5.8542c-.4435-.3321-1.0677-.2697-1.4362.1442l-7.9859 8.9854-2.9855-1.493c.0219-.128.0354-.2571.0407-.3868 0-1.7662-1.4321-3.1983-3.1984-3.1983m1.0661 3.1983c0 .5888-.4773 1.0662-1.0661 1.0662-.5887 0-1.0661-.4774-1.0661-1.0662 0-.5887.4774-1.0661 1.0661-1.0661.5888 0 1.0661.4774 1.0661 1.0661m6.3967 17.0578h10.6611v1.0661c0 .5887-.4774 1.0661-1.0661 1.0661h-8.5289c-.5888 0-1.0661-.4774-1.0661-1.0661zM2.13222 49.1192c0-.5888.47735-1.0661 1.06611-1.0661H21.3222v1.0661c0 1.7663 1.432 3.1983 3.1983 3.1983h8.5289c1.7662 0 3.1983-1.432 3.1983-3.1983v-1.0661h18.1238c.5888 0 1.0661.4773 1.0661 1.0661v4.2644c0 .5888-.4773 1.0661-1.0661 1.0661H3.19833c-.58876 0-1.06611-.4773-1.06611-1.0661z"/>
  </g>
  <defs>
    <clipPath id="clip0_1004689_1305">
      <path fill="#fff" d="M0 0h64v64H0z"/>
    </clipPath>
  </defs>
</svg>

<svg xmlns="http://www.w3.org/2000/svg" width="64" height="64" fill="none" viewBox="0 0 64 64">
  <g id="astronaut 1">
    <g id="Group">
      <g id="Group_2">
        <path id="Vector" fill="#4d5ae5" d="M63.9481 9.04812c-.1259-.38513-.4586-.66663-.8608-.72538l-3.8208-.55576-1.7099-3.46243c-.3583-.72963-1.5541-.72963-1.9125 0l-1.7099 3.46243-3.8209.55588c-.4021.05863-.7349.33926-.8619.72539-.1248.38613-.0214.81064.2699 1.09335l2.7659 2.6956-.6528 3.8059c-.0682.4.096.8043.4235 1.0433.3318.2411.7648.2709 1.1243.081l3.4177-1.7974 3.4177 1.7974c.1557.0821.3275.1226.4971.1226.2207 0 .4416-.0682.6272-.2037.3285-.2389.4928-.6433.4235-1.0433l-.6527-3.8059 2.7659-2.6956c.2898-.28374.3944-.70725.2695-1.09338M59.0223 11.702c-.2506.2443-.3659.5984-.3061.9441l.3818 2.2282-2.001-1.0517c-.1557-.0822-.3264-.1227-.4971-.1227s-.3403.0405-.4972.1227l-2.0011 1.0517.3819-2.2282c.0597-.3457-.0555-.6987-.3062-.9441l-1.6202-1.5786 2.2379-.32539c.3477-.05013.6475-.26875.8032-.58351l1.0006-2.02665 1.0005 2.02665c.1557.31463.4555.53338.8032.58351l2.2379.32539z"/>
      </g>
    </g>
    <g id="Group_3">
      <g id="Group_4">
        <path id="Vector_2" fill="#4d5ae5" d="M52.2669 41.0444h-2.1334v2.1334h2.1334z"/>
      </g>
    </g>
    <g id="Group_5">
      <g id="Group_6">
        <path id="Vector_3" fill="#4d5ae5" d="M52.2669 45.3112h-2.1334v2.1334h2.1334z"/>
      </g>
    </g>
    <g id="Group_7">
      <g id="Group_8">
        <path id="Vector_4" fill="#4d5ae5" d="M54.4003 43.1778h-2.1334v2.1334h2.1334z"/>
      </g>
    </g>
    <g id="Group_9">
      <g id="Group_10">
        <path id="Vector_5" fill="#4d5ae5" d="M50.1337 43.1778h-2.1334v2.1334h2.1334z"/>
      </g>
    </g>
    <g id="Group_11">
      <g id="Group_12">
        <path id="Vector_6" fill="#4d5ae5" d="M44.8002 52.778h-2.1334v2.1333h2.1334z"/>
      </g>
    </g>
    <g id="Group_13">
      <g id="Group_14">
        <path id="Vector_7" fill="#4d5ae5" d="M44.8002 57.0446h-2.1334v2.1335h2.1334z"/>
      </g>
    </g>
    <g id="Group_15">
      <g id="Group_16">
        <path id="Vector_8" fill="#4d5ae5" d="M46.9336 54.9113h-2.1334v2.1335h2.1334z"/>
      </g>
    </g>
    <g id="Group_17">
      <g id="Group_18">
        <path id="Vector_9" fill="#4d5ae5" d="M42.6668 54.9113h-2.1334v2.1335h2.1334z"/>
      </g>
    </g>
    <g id="Group_19">
      <g id="Group_20">
        <path id="Vector_10" fill="#4d5ae5" d="M32 48.5113h-2.1334v2.1334H32z"/>
      </g>
    </g>
    <g id="Group_21">
      <g id="Group_22">
        <path id="Vector_11" fill="#4d5ae5" d="M32 52.778h-2.1334v2.1333H32z"/>
      </g>
    </g>
    <g id="Group_23">
      <g id="Group_24">
        <path id="Vector_12" fill="#4d5ae5" d="M34.1334 50.6445H32v2.1334h2.1334z"/>
      </g>
    </g>
    <g id="Group_25">
      <g id="Group_26">
        <path id="Vector_13" fill="#4d5ae5" d="M29.8666 50.6445h-2.1334v2.1334h2.1334z"/>
      </g>
    </g>
    <g id="Group_27">
      <g id="Group_28">
        <path id="Vector_14" fill="#4d5ae5" d="M11.733 12.2439H9.59964v2.1334H11.733z"/>
      </g>
    </g>
    <g id="Group_29">
      <g id="Group_30">
        <path id="Vector_15" fill="#4d5ae5" d="M11.733 16.5108H9.59964v2.1334H11.733z"/>
      </g>
    </g>
    <g id="Group_31">
      <g id="Group_32">
        <path id="Vector_16" fill="#4d5ae5" d="M13.8663 14.3774h-2.1334v2.1334h2.1334z"/>
      </g>
    </g>
    <g id="Group_33">
      <g id="Group_34">
        <path id="Vector_17" fill="#4d5ae5" d="M9.59964 14.3774h-2.1334v2.1334h2.1334z"/>
      </g>
    </g>
    <g id="Group_35">
      <g id="Group_36">
        <path id="Vector_18" fill="#2e2f42" d="M49.4295 28.3189c-.5749-.7755-1.4186-1.2746-2.3765-1.4091-.9621-.1365-1.9115.1162-2.6796.704l-2.5035 1.9189-.0011.0011-3.7953 2.8342-2.7158-1.0816c4.8427-2.1728 8.2274-7.0166 8.2274-12.6402 0-7.646-6.2455-13.86687-13.9224-13.86687S15.7405 11.0002 15.7405 18.6462c0 2.7713.8288 5.3483 2.24 7.5168l-5.5276-.048h-.0096c-.0171 0-.0309.0085-.0469.0097-.1056.0042-.2091.0256-.3103.0618-.0257.0097-.0523.015-.0768.0267-.0127.0053-.0256.0063-.0384.0127l-6.46619 3.1926c-.00112 0-.00212 0-.00212.001l-3.78681 1.821c-.04163.0181-.08425.0426-.12588.0704C.0805013 32.3156-.433632 34.289.393131 35.9018c.440507.8576 1.190389 1.4892 2.112029 1.7782.35526.1108.71789.1653 1.0784.1653.57926 0 1.15314-.1418 1.6789-.4223L8.038 35.9467l4.5281-2.3382 2.7136-.016L4.39632 44.4237c-.001.0011-.00213.0011-.00325.0021l-2.67742 2.6667c-.63251.6294-.980263 1.4645-.980263 2.3553 0 .8896.347753 1.7269.980263 2.3574.64964.6464 1.50403.9706 2.35841.9706.85552 0 1.70878-.3242 2.36054-.9706l2.62829-2.6177 3.48171-2.5995 1.8016 1.7941-3.5233 3.5083c-.001.0012-.0021.0012-.0032.0022l-2.67745 2.6666c-.63251.6294-.98026 1.4645-.98026 2.3553 0 .8896.34775 1.7269.98026 2.3574.64964.6464 1.50515.9707 2.35955.9707s1.7099-.3243 2.3605-.9707l2.6784-2.6667 4.2849-4.2666c.0011-.0012.0011-.0022.0021-.0033l2.0193-2-.0075-.0075c.0127-.0128.0308-.0172.0437-.0309l10.3319-11.3164 6.942.9877c.0501.0075.1003.0107.1504.0107.1291 0 .2539-.0309.3744-.0768.0352-.0127.0661-.0299.0992-.0469.0384-.0192.0789-.0298.1153-.0543l6.4267-4.2667c.0235-.016.0363-.0417.0586-.0587.0257-.0202.0577-.0287.081-.0512l2.5429-2.3819c1.3232-1.2398 1.5056-3.2707.4239-4.7235M4.26082 35.5403c-.34663.1856-.74026.2229-1.11677.1035-.37338-.1163-.67626-.3713-.85339-.7158-.32213-.6272-.1355-1.391.42876-1.8037l2.62729-1.2641.63251 1.8486.26563.7765zm6.99428-3.6554-3.0966 1.6-.51088-1.4934-.36688-1.0731 4.05346-2.0012zM41.4539 18.644c0 1.8368-.4384 3.5692-1.1979 5.119l-8.3627-3.7984c-.0876-1.1467-.6827-2.1504-1.5766-2.7756l2.9281-9.72063c4.7553 1.51265 8.2091 5.94893 8.2091 11.17563m-23.5779 0c0-6.4694 5.2886-11.73351 11.789-11.73351.5056 0 1.0005.04262 1.4901.1045l-2.864 9.50741c-.0384-.0011-.0747-.0118-.1142-.0118-2.0651 0-3.7451 1.6747-3.7451 3.7335 0 2.0586 1.68 3.7334 3.7451 3.7334 1.3888 0 2.5888-.7669 3.2363-1.8892l7.7249 3.5095c-2.1494 2.8928-5.5894 4.7798-9.4733 4.7798-6.5002 0-11.7888-5.2641-11.7888-11.7336m11.9127 1.6001c0 .8821-.7232 1.6-1.6118 1.6-.8885 0-1.6117-.7179-1.6117-1.6 0-.8822.7232-1.6001 1.6117-1.6001.8886 0 1.6118.7179 1.6118 1.6001M4.9297 50.2925c-.4725.4683-1.23739.4673-1.70877.0011-.22726-.2272-.35201-.5268-.35201-.8458 0-.3179.12475-.6177.35201-.8427l1.92415-1.9169 1.7024 1.695zm6.4277 7.4669c-.4725.4682-1.2384.4694-1.70987.0011-.22726-.2272-.35201-.5269-.35201-.8459 0-.3179.12475-.6176.35201-.8426l1.92537-1.9179.8054.8011.8982.8939zm6.9634-6.9377c-.0011.001-.0021.001-.0033.0021l-3.5296 3.52-.8054-.8011-.8982-.8939 3.5265-3.5104v-.001c.0011-.0011.0021-.0011.0032-.0021.08-.08.1301-.176.1793-.2709.0138-.0278.0405-.0513.0522-.08.0331-.0821.0384-.1706.0513-.2572.0063-.0491.0277-.0948.0277-.1451 0-.0715-.0256-.1407-.0405-.2112-.0127-.064-.0127-.1292-.0374-.1909-.0405-.1003-.1098-.1888-.1823-.2753-.0203-.0235-.0278-.0533-.0502-.0757h-.0011c-.0011-.001-.0011-.0033-.0021-.0043l-3.2139-3.2c-.0342-.0341-.0779-.048-.1163-.0768-.0565-.0437-.1109-.0842-.1739-.1152-.0607-.0299-.1226-.048-.1866-.0651-.0682-.0193-.1344-.0342-.2059-.0395-.0651-.0043-.1259.0021-.1909.0096-.0715.0085-.1386.0181-.208.0405-.0672.0214-.1268.0544-.1887.0896-.0395.0224-.0843.0299-.1216.0576L8.45838 46.973l-1.80165-1.7942 4.79797-4.7723 8.7212 8.5773zm13.6376-14.0334c-.0309-.0042-.0598.0075-.0906.0054-.0779-.0043-.1525.0011-.2304.0139-.0608.0106-.1184.0223-.176.0426-.0683.0235-.1302.0555-.1932.0939-.0597.0362-.1141.0746-.1663.1226-.0257.0224-.0565.0331-.08.0586l-9.3966 10.2914-8.6561-8.5132 5.6662-5.6364c.4171-.416.4193-1.0912.0033-1.5094-.2102-.2101-.4864-.3136-.7627-.3125v-.001l-4.4374.0267.0555-3.215 6.2081.0534c2.5302 2.5878 6.0587 4.2017 9.9628 4.2017.8746 0 1.728-.0906 2.5589-.2454.08.064.1589.1292.2592.1697l4.8194 1.92.305 1.5168.3562 1.7706zm8.0822.3563-.6261-3.1158 2.8928-2.1601.7574 1.0048 1.136 1.5083zm7.5073-5.662-1.6758 1.5702-1.8624-2.4726 1.6629-1.2746c.3104-.2389.7019-.336 1.0859-.2859.3861.0544.7275.256.96.5685.4331.5835.3595 1.3974-.1706 1.8944"/>
      </g>
    </g>
    <g id="Group_37">
      <g id="Group_38">
        <path id="Vector_19" fill="#2e2f42" d="m27.2042 37.0881-4.286-4.2667c-.4149-.4149-1.0891-.4149-1.5051 0l-4.2848 4.2667c-.2005.2016-.3137.4725-.3137.7562 0 .2838.112.5558.3137.7563l4.2848 4.2667c.208.2069.4811.3104.7531.3104s.545-.1035.752-.3104l4.286-4.2667c.2005-.2005.3146-.4725.3146-.7563 0-.2837-.1131-.5557-.3146-.7562m-5.038 3.5179-2.7734-2.7617 2.7734-2.7616 2.7744 2.7616z"/>
      </g>
    </g>
    <g id="Group_39">
      <g id="Group_40">
        <path id="Vector_20" fill="#2e2f42" d="m34.3285 10.1415-.5152 2.0716c.1419.0352 3.4753.9035 3.4753 4.2977h2.1334c-.0001-4.0343-3.3313-5.9309-5.0935-6.3693"/>
      </g>
    </g>
    <g id="Group_41">
      <g id="Group_42">
        <path id="Vector_21" fill="#2e2f42" d="M39.422 18.644h-2.1334v2.1335h2.1334z"/>
      </g>
    </g>
  </g>
</svg>
